<svg width="30" height="30" viewBox="0 0 30 30" fill="none" xmlns="http://www.w3.org/2000/svg">
<path fill-rule="evenodd" clip-rule="evenodd" d="M23.3378 6.66215C22.84 6.16437 22.0933 6.16437 21.5955 6.66215L15 13.2577L8.40444 6.66215C7.90666 6.16437 7.15999 6.16437 6.66221 6.66215C6.16443 7.15993 6.16443 7.9066 6.66221 8.40437L13.2578 14.9999L6.66221 21.5955C6.16443 22.0933 6.16443 22.8399 6.66221 23.3377C6.9111 23.5866 7.15999 23.711 7.53332 23.711C7.90666 23.711 8.15555 23.5866 8.40444 23.3377L15 16.7422L21.5955 23.3377C21.8444 23.5866 22.2178 23.711 22.4667 23.711C22.7155 23.711 23.0889 23.5866 23.3378 23.3377C23.8355 22.8399 23.8355 22.0933 23.3378 21.5955L16.7422 14.9999L23.3378 8.40437C23.8355 7.9066 23.8355 7.15993 23.3378 6.66215Z" fill="#181818"/>
</svg>
