<svg width="24" height="24" viewBox="0 0 24 24" fill="none" xmlns="http://www.w3.org/2000/svg">
<path fill-rule="evenodd" clip-rule="evenodd" d="M3 6.05C3 6.57467 3.42533 7 3.95 7H20.05C20.5747 7 21 6.57467 21 6.05V5.95C21 5.42533 20.5747 5 20.05 5H3.95C3.42533 5 3 5.42533 3 5.95V6.05ZM3.95 13C3.42533 13 3 12.5747 3 12.05V11.95C3 11.4253 3.42533 11 3.95 11H20.05C20.5747 11 21 11.4253 21 11.95V12.05C21 12.5747 20.5747 13 20.05 13H3.95ZM3.95 19C3.42533 19 3 18.5747 3 18.05V17.95C3 17.4253 3.42533 17 3.95 17H20.05C20.5747 17 21 17.4253 21 17.95V18.05C21 18.5747 20.5747 19 20.05 19H3.95Z" fill="white"/>
</svg>
