<svg width="18" height="18" viewBox="0 0 18 18" fill="none" xmlns="http://www.w3.org/2000/svg">
<path fill-rule="evenodd" clip-rule="evenodd" d="M17.3377 0.662152C16.8399 0.164374 16.0933 0.164374 15.5955 0.662152L8.99993 7.25771L2.40437 0.662152C1.9066 0.164374 1.15993 0.164374 0.662152 0.662152C0.164374 1.15993 0.164374 1.9066 0.662152 2.40437L7.25771 8.99993L0.662152 15.5955C0.164374 16.0933 0.164374 16.8399 0.662152 17.3377C0.911041 17.5866 1.15993 17.711 1.53326 17.711C1.9066 17.711 2.15549 17.5866 2.40437 17.3377L8.99993 10.7422L15.5955 17.3377C15.8444 17.5866 16.2177 17.711 16.4666 17.711C16.7155 17.711 17.0888 17.5866 17.3377 17.3377C17.8355 16.8399 17.8355 16.0933 17.3377 15.5955L10.7422 8.99993L17.3377 2.40437C17.8355 1.9066 17.8355 1.15993 17.3377 0.662152Z" fill="#181818"/>
</svg>
