<svg width="134" height="21" viewBox="0 0 134 21" fill="none" xmlns="http://www.w3.org/2000/svg">
<path fill-rule="evenodd" clip-rule="evenodd" d="M23.8022 19.4109L26.7724 2.50684H37.9824C40.8431 2.50684 43.649 3.31505 43.0742 6.56163C42.6088 9.17807 40.4599 10.2603 37.9688 10.589C41.0758 10.8356 42.9784 11.9178 42.4445 14.9315C41.8971 18.0137 39.1869 19.3972 35.6008 19.3972H23.8022V19.4109ZM32.9592 16.7534C34.0405 16.7534 34.9849 16.1507 35.2997 14.3014C35.6145 12.5479 34.8206 11.8904 33.8078 11.8904H32.0284L31.1661 16.7534H32.9592ZM33.9173 9.76711C34.7933 9.76711 36.0525 9.41094 36.3947 7.42464C36.7505 5.39725 35.8609 5.12327 34.7248 5.12327H33.2192L32.398 9.76711H33.9173Z" fill="white"/>
<path fill-rule="evenodd" clip-rule="evenodd" d="M43.1699 19.4109L46.1538 2.50684H53.066L50.0958 19.3972H43.1699V19.4109Z" fill="white"/>
<path fill-rule="evenodd" clip-rule="evenodd" d="M63.7695 19.4109L60.8678 11.9726L59.5538 19.4109H52.6416L55.6255 2.50684H62.5376L61.2921 9.57533L67.3146 2.50684H73.2139L66.5344 10.0137L70.9965 19.4109H63.7695Z" fill="white"/>
<path fill-rule="evenodd" clip-rule="evenodd" d="M72.1602 19.4109L75.144 2.50684H89.0505L88.5851 5.12327H81.2213L80.4684 9.42464H87.0795L86.6141 12.0548H80.0031L79.1818 16.7397H86.5457L86.0803 19.3972H72.1602V19.4109Z" fill="white"/>
<path fill-rule="evenodd" clip-rule="evenodd" d="M88.3521 19.4109L91.3222 2.50684H102.532C105.393 2.50684 108.199 3.31505 107.624 6.56163C107.159 9.17807 105.01 10.2603 102.519 10.589C105.626 10.8356 107.528 11.9178 106.994 14.9315C106.447 18.0137 103.737 19.3972 100.151 19.3972H88.3521V19.4109ZM97.509 16.7534C98.5903 16.7534 99.5347 16.1507 99.8495 14.3014C100.164 12.5479 99.3705 11.8904 98.3576 11.8904H96.5782L95.7159 16.7534H97.509ZM98.4671 9.76711C99.3431 9.76711 100.602 9.41094 100.944 7.42464C101.3 5.39725 100.397 5.12327 99.2746 5.12327H97.769L96.9478 9.76711H98.4671Z" fill="white"/>
<path fill-rule="evenodd" clip-rule="evenodd" d="M107.733 19.4109L110.704 2.50684H117.616L114.646 19.3972H107.733V19.4109Z" fill="white"/>
<path fill-rule="evenodd" clip-rule="evenodd" d="M116.548 19.4109L116.973 16.9726L126.212 5.15067H119.779L120.244 2.52054H134L133.603 4.75341L124.268 16.7534H131.7L131.235 19.4109H116.548Z" fill="white"/>
<path fill-rule="evenodd" clip-rule="evenodd" d="M2.90771 20.8597H17.5042V0.995789H2.90771V20.8597Z" fill="#FEFEFE"/>
<mask id="mask0" mask-type="alpha" maskUnits="userSpaceOnUse" x="6" y="0" width="14" height="21">
<path fill-rule="evenodd" clip-rule="evenodd" d="M6.64111 0.996399H19.8876V20.8595H6.64111V0.996399Z" fill="white"/>
</mask>
<g mask="url(#mask0)">
<path fill-rule="evenodd" clip-rule="evenodd" d="M7.36976 1.21569C7.51584 1.26462 7.66804 1.31617 7.82637 1.37033C8.15264 1.48129 8.49465 1.61147 8.86116 1.77135C9.04486 1.85086 9.23117 1.94172 9.42449 2.03957C9.52246 2.09199 9.6248 2.14703 9.71402 2.19858C9.81374 2.25537 9.90996 2.31653 10.0097 2.38205C10.2065 2.51398 10.4068 2.66425 10.601 2.85559L10.6369 2.89141L10.6762 2.93422L10.7532 3.02071L10.8101 3.08711L10.8232 3.10371C10.8302 3.11245 10.8188 3.09498 10.8398 3.12555L10.8485 3.13691L10.8818 3.18322C10.9693 3.30728 11.0523 3.44707 11.1145 3.61045C11.1459 3.6917 11.1731 3.77819 11.1923 3.86906C11.2028 3.91274 11.2107 3.97477 11.2159 4.02719L11.2273 4.12941C11.2273 4.14514 11.2282 4.11019 11.2282 4.16698V4.18533L11.2273 4.22115L11.2264 4.29366C11.2238 4.34172 11.2177 4.38977 11.2133 4.43782C11.2063 4.48587 11.1967 4.53218 11.1871 4.58023C11.1766 4.62566 11.1634 4.67197 11.1503 4.7174C11.0384 5.07998 10.8389 5.36742 10.6325 5.6103C10.5266 5.73261 10.4243 5.8392 10.301 5.95453L10.2292 6.0218L10.1391 6.09956C10.0832 6.14848 10.0254 6.19916 9.96769 6.24546C9.73589 6.43418 9.49971 6.60367 9.25829 6.76792C7.84911 7.56472 8.63636 8.08456 9.21368 8.24444C9.55395 8.33618 9.89684 8.44277 10.2354 8.56333C10.3211 8.59479 10.4033 8.62187 10.4943 8.65856L10.7558 8.76079L10.9771 8.84903L11.2544 8.97222L11.7005 9.17316L11.8099 9.22209C11.8081 9.22209 11.8676 9.25441 11.8492 9.24393L11.865 9.25092L11.8938 9.26577L11.9533 9.29548L12.1904 9.41255L12.4257 9.53574L12.5438 9.59777L12.6688 9.66766L12.9181 9.80833L13.1307 9.93151L13.2339 9.99092L13.2855 10.0206L13.3109 10.0355C13.2934 10.0224 13.3503 10.0626 13.3485 10.0617L13.3625 10.0696L13.5786 10.2024C13.7281 10.2967 13.883 10.3963 14.0474 10.5116C14.1288 10.5684 14.2101 10.627 14.2932 10.6916C14.3763 10.7536 14.4594 10.82 14.5416 10.8882C14.6204 10.9511 14.7157 11.0376 14.8067 11.1206L15.0114 11.3102L15.0551 11.3504L15.0665 11.36C15.1277 11.429 15.0901 11.3853 15.1067 11.4037L15.1286 11.4246L15.2195 11.5129L15.3149 11.609L15.4146 11.7121C15.5519 11.8554 15.6989 12.0205 15.8467 12.2109C15.9945 12.4014 16.1432 12.6181 16.2788 12.8601C16.3462 12.9798 16.41 13.1073 16.4686 13.2384L16.5124 13.338C16.5273 13.3721 16.5395 13.4009 16.557 13.4472L16.6034 13.5756L16.6445 13.6945L16.683 13.8037L16.7258 13.967L16.7547 14.0806C16.7897 14.2309 16.8168 14.3812 16.8352 14.5297C16.8745 14.8267 16.8841 15.1142 16.8736 15.3876C16.864 15.662 16.8334 15.9188 16.7914 16.1626C16.7494 16.4064 16.6952 16.6379 16.634 16.8554C16.5124 17.294 16.3611 17.6819 16.2027 18.0471C15.88 18.7697 15.5196 19.3882 15.1539 19.9561C15.063 20.0976 14.9702 20.2366 14.8775 20.3729C14.7848 20.5083 14.6947 20.6376 14.5924 20.7782C14.574 20.8045 14.5521 20.8333 14.532 20.8595H17.5034C18.8182 20.8595 19.8879 19.7919 19.8879 18.4787V3.40164C19.8879 2.07452 18.8068 0.996399 17.479 0.996399H6.64111C6.73821 1.02436 6.83793 1.05231 6.94464 1.08464C7.07848 1.1257 7.22106 1.16939 7.36976 1.21569Z" fill="#FFB00F"/>
</g>
<mask id="mask1" mask-type="alpha" maskUnits="userSpaceOnUse" x="0" y="0" width="12" height="21">
<path fill-rule="evenodd" clip-rule="evenodd" d="M0 0.995972H11.1748V20.8598H0V0.995972Z" fill="white"/>
</mask>
<g mask="url(#mask1)">
<path fill-rule="evenodd" clip-rule="evenodd" d="M11.0954 15.1234C11.6596 13.2895 9.14388 11.6636 6.08584 10.3976C3.65061 9.3894 4.18769 7.92511 4.20606 7.86658C4.21568 7.83775 4.2253 7.80804 4.23668 7.78008L4.26904 7.7032C4.36089 7.49963 4.4711 7.34761 4.57082 7.23229C4.67141 7.11521 4.77113 7.0226 4.86298 6.94747C4.95657 6.86884 5.04405 6.80681 5.13064 6.74827C5.21462 6.69148 5.29859 6.63993 5.37907 6.59363L5.51115 6.51849L5.60999 6.46869C5.68522 6.432 5.76045 6.39443 5.8348 6.35774L5.95463 6.30007L6.06397 6.25202C6.35526 6.12184 6.63429 6.00914 6.90458 5.90342C7.17138 5.79946 7.43379 5.69549 7.69359 5.59414C7.94463 5.49367 8.19043 5.39407 8.42398 5.2901C8.65666 5.18613 8.88146 5.08042 9.08527 4.96859C9.13776 4.94063 9.18412 4.9118 9.23485 4.88297L9.3022 4.84452L9.3853 4.79123C9.46315 4.7423 9.55412 4.67678 9.62848 4.61824C9.78155 4.49855 9.89439 4.37623 9.95475 4.27401C9.96175 4.26091 9.96962 4.24868 9.97662 4.23644C9.98186 4.22334 9.98799 4.21111 9.99324 4.19888L10.0081 4.16218L10.0134 4.14383L10.016 4.13422L10.0177 4.12986C10.0177 4.17966 10.0186 4.13685 10.0186 4.14558L10.0239 4.06608C10.0239 4.05909 10.0291 4.06084 10.0291 4.04598C10.03 4.01802 10.0282 3.98832 10.0239 3.95599C10.0169 3.89222 9.99324 3.82057 9.96 3.74718L9.94775 3.71923L9.94513 3.71224C9.96087 3.73583 9.946 3.71311 9.94775 3.71661L9.93725 3.69739L9.89439 3.62225L9.86465 3.57332L9.84978 3.54886L9.83054 3.5209C9.72644 3.36976 9.59349 3.2221 9.45178 3.08581C9.3818 3.01766 9.30745 2.94952 9.2331 2.88749C9.14913 2.81672 9.0774 2.75993 9.00305 2.69964C8.8491 2.5817 8.6934 2.46725 8.53682 2.36328C8.22542 2.15447 7.91751 1.9675 7.63235 1.80849C7.4854 1.72724 7.34545 1.64948 7.21074 1.57522C7.07603 1.50533 6.94745 1.43893 6.82586 1.37602C6.52933 1.22488 6.27303 1.10081 6.0526 0.995972H2.43474C1.09204 0.995972 -0.000488281 2.0872 -0.000488281 3.42742V18.4634C-0.000488281 19.7844 1.0763 20.8599 2.39975 20.8599H3.65761C5.48578 20.0107 10.3484 17.5539 11.0954 15.1234Z" fill="#FFB00F"/>
</g>
</svg>
