<svg width="979" height="147" viewBox="0 0 979 147" fill="none" xmlns="http://www.w3.org/2000/svg">
<path fill-rule="evenodd" clip-rule="evenodd" d="M173.9 135.4L195.6 12H277.5C298.4 12 318.9 17.9 314.7 41.6C311.3 60.7 295.6 68.6 277.4 71C300.1 72.8 314 80.7 310.1 102.7C306.1 125.2 286.3 135.3 260.1 135.3H173.9V135.4ZM240.8 116C248.7 116 255.6 111.6 257.9 98.1C260.2 85.3 254.4 80.5 247 80.5H234L227.7 116H240.8ZM247.8 65C254.2 65 263.4 62.4 265.9 47.9C268.5 33.1 262 31.1 253.7 31.1H242.7L236.7 65H247.8Z" fill="#212121"/>
<path fill-rule="evenodd" clip-rule="evenodd" d="M315.4 135.4L337.2 12H387.7L366 135.3H315.4V135.4Z" fill="#212121"/>
<path fill-rule="evenodd" clip-rule="evenodd" d="M465.9 135.4L444.7 81.1L435.1 135.4H384.6L406.4 12H456.9L447.8 63.6L491.8 12H534.9L486.1 66.8L518.7 135.4H465.9Z" fill="#212121"/>
<path fill-rule="evenodd" clip-rule="evenodd" d="M527.2 135.4L549 12H650.6L647.2 31.1H593.4L587.9 62.5H636.2L632.8 81.7H584.5L578.5 115.9H632.3L628.9 135.3H527.2V135.4Z" fill="#212121"/>
<path fill-rule="evenodd" clip-rule="evenodd" d="M645.5 135.4L667.2 12H749.1C770 12 790.5 17.9 786.3 41.6C782.9 60.7 767.2 68.6 749 71C771.7 72.8 785.6 80.7 781.7 102.7C777.7 125.2 757.9 135.3 731.7 135.3H645.5V135.4ZM712.4 116C720.3 116 727.2 111.6 729.5 98.1C731.8 85.3 726 80.5 718.6 80.5H705.6L699.3 116H712.4ZM719.4 65C725.8 65 735 62.4 737.5 47.9C740.1 33.1 733.5 31.1 725.3 31.1H714.3L708.3 65H719.4Z" fill="#212121"/>
<path fill-rule="evenodd" clip-rule="evenodd" d="M787.1 135.4L808.8 12H859.3L837.6 135.3H787.1V135.4Z" fill="#212121"/>
<path fill-rule="evenodd" clip-rule="evenodd" d="M851.5 135.4L854.6 117.6L922.1 31.3H875.1L878.5 12.1H979L976.1 28.4L907.9 116H962.2L958.8 135.4H851.5Z" fill="#212121"/>
<path fill-rule="evenodd" clip-rule="evenodd" d="M21.2427 145.976H127.884V0.969193H21.2427V145.976Z" fill="#FEFEFE"/>
<mask id="mask0" mask-type="alpha" maskUnits="userSpaceOnUse" x="48" y="0" width="98" height="146">
<path fill-rule="evenodd" clip-rule="evenodd" d="M48.5208 0.973648H145.299V145.974H48.5208V0.973648Z" fill="white"/>
</mask>
<g mask="url(#mask0)">
<path fill-rule="evenodd" clip-rule="evenodd" d="M53.8443 2.57449C54.9115 2.93165 56.0235 3.30794 57.1802 3.70337C59.564 4.51336 62.0627 5.46366 64.7404 6.6308C66.0825 7.21119 67.4437 7.87449 68.8561 8.58881C69.5718 8.97148 70.3195 9.37328 70.9714 9.74957C71.6999 10.1641 72.4029 10.6106 73.1314 11.0889C74.5694 12.052 76.0328 13.149 77.4516 14.5457L77.7136 14.8072L78.0012 15.1197L78.5636 15.7511L78.9789 16.2359L79.0748 16.357C79.1259 16.4208 79.0429 16.2933 79.1962 16.5165L79.2601 16.5994L79.503 16.9374C80.1421 17.8431 80.7492 18.8635 81.2029 20.0562C81.433 20.6493 81.6311 21.2807 81.7717 21.944C81.8484 22.2629 81.9059 22.7158 81.9442 23.0984L82.0273 23.8446C82.0273 23.9594 82.0337 23.7043 82.0337 24.1189V24.2528L82.0273 24.5143L82.0209 25.0437C82.0018 25.3945 81.957 25.7452 81.9251 26.096C81.8739 26.4468 81.8036 26.7848 81.7333 27.1356C81.6567 27.4673 81.5608 27.8053 81.4649 28.1369C80.6469 30.7837 79.1898 32.8821 77.6816 34.6551C76.9084 35.548 76.1606 36.3261 75.2596 37.168L74.7355 37.6591L74.0773 38.2267C73.6683 38.5839 73.2465 38.9538 72.8247 39.2918C71.1312 40.6694 69.4057 41.9067 67.6418 43.1058C57.3464 48.9224 63.098 52.7172 67.3159 53.8843C69.8019 54.554 72.307 55.3321 74.7803 56.2122C75.4065 56.4418 76.0073 56.6396 76.6719 56.9074L78.5827 57.6536L80.1996 58.2978L82.2254 59.1971L85.4847 60.664L86.2835 61.0211C86.2707 61.0211 86.7053 61.2571 86.5711 61.1806L86.6861 61.2316L86.897 61.34L87.3316 61.5569L89.0635 62.4115L90.7826 63.3108L91.6453 63.7636L92.5592 64.2738L94.3806 65.3007L95.9335 66.2L96.6876 66.6337L97.0647 66.8505L97.25 66.9589C97.1222 66.8633 97.5376 67.1566 97.5248 67.1503L97.627 67.2077L99.2055 68.1771C100.298 68.8659 101.43 69.593 102.631 70.4349C103.225 70.8494 103.82 71.2767 104.427 71.7487C105.034 72.2015 105.641 72.6862 106.242 73.1837C106.817 73.6429 107.513 74.2743 108.178 74.8802L109.674 76.2642L109.993 76.5576L110.076 76.6278C110.523 77.1316 110.249 76.8127 110.37 76.9466L110.53 77.0997L111.195 77.7439L111.891 78.4454L112.62 79.198C113.623 80.244 114.697 81.4494 115.777 82.8398C116.857 84.2302 117.943 85.8119 118.934 87.5785C119.426 88.4523 119.892 89.3835 120.32 90.3401L120.64 91.0672C120.749 91.3159 120.838 91.5264 120.966 91.8644L121.305 92.802L121.605 93.6694L121.886 94.4666L122.199 95.6593L122.41 96.4884C122.666 97.5854 122.864 98.6824 122.998 99.7666C123.286 101.935 123.356 104.033 123.279 106.03C123.209 108.032 122.985 109.907 122.679 111.687C122.372 113.466 121.976 115.156 121.528 116.744C120.64 119.946 119.534 122.778 118.378 125.444C116.019 130.718 113.387 135.234 110.715 139.379C110.051 140.413 109.373 141.427 108.696 142.422C108.018 143.41 107.36 144.354 106.612 145.381C106.478 145.572 106.318 145.783 106.171 145.974H127.881C137.486 145.974 145.302 138.18 145.302 128.595V18.5319C145.302 8.84392 137.403 0.973648 127.702 0.973648H48.5208C49.2302 1.17774 49.9587 1.38183 50.7384 1.61781C51.7162 1.91757 52.7579 2.23646 53.8443 2.57449Z" fill="#FFB00F"/>
</g>
<mask id="mask1" mask-type="alpha" maskUnits="userSpaceOnUse" x="0" y="0" width="82" height="146">
<path fill-rule="evenodd" clip-rule="evenodd" d="M0 0.970459H81.6425V145.976H0V0.970459Z" fill="white"/>
</mask>
<g mask="url(#mask1)">
<path fill-rule="evenodd" clip-rule="evenodd" d="M81.061 104.1C85.183 90.7132 66.8034 78.8441 44.4614 69.6025C26.6697 62.2425 30.5936 51.5532 30.7278 51.1259C30.7981 50.9154 30.8684 50.6986 30.9515 50.4945L31.1879 49.9332C31.859 48.4472 32.6642 47.3375 33.3927 46.4956C34.1277 45.6409 34.8562 44.9649 35.5272 44.4164C36.211 43.8424 36.8501 43.3896 37.4828 42.9622C38.0963 42.5477 38.7098 42.1714 39.2977 41.8334L40.2627 41.2849L40.9849 40.9213C41.5345 40.6535 42.0841 40.3792 42.6273 40.1113L43.5028 39.6904L44.3017 39.3396C46.4298 38.3893 48.4684 37.5666 50.4431 36.7949C52.3923 36.0359 54.3095 35.2769 56.2076 34.5371C58.0417 33.8037 59.8375 33.0766 61.5438 32.3176C63.2437 31.5586 64.8861 30.7869 66.3752 29.9706C66.7586 29.7665 67.0973 29.556 67.468 29.3455L67.9601 29.0649L68.5672 28.6759C69.136 28.3187 69.8006 27.8404 70.3438 27.413C71.4622 26.5393 72.2866 25.6464 72.7275 24.9002C72.7787 24.8045 72.8362 24.7152 72.8873 24.6259C72.9257 24.5303 72.9704 24.441 73.0087 24.3517L73.1174 24.0838L73.1557 23.9499L73.1749 23.8797L73.1877 23.8478C73.1877 24.2114 73.1941 23.8988 73.1941 23.9626L73.2324 23.3822C73.2324 23.3312 73.2708 23.344 73.2708 23.2355C73.2771 23.0315 73.2644 22.8146 73.2324 22.5786C73.1813 22.113 73.0087 21.5901 72.7659 21.0543L72.6764 20.8502L72.6572 20.7992C72.7723 20.9714 72.6636 20.8056 72.6764 20.8311L72.5997 20.6908L72.2866 20.1423L72.0693 19.7851L71.9607 19.6065L71.8201 19.4025C71.0596 18.2991 70.0882 17.2212 69.0529 16.2263C68.5416 15.7288 67.9984 15.2313 67.4552 14.7785C66.8417 14.2619 66.3177 13.8473 65.7745 13.4073C64.6497 12.5463 63.5121 11.7108 62.3682 10.9518C60.0931 9.42749 57.8436 8.06263 55.7602 6.90186C54.6866 6.30872 53.6641 5.74109 52.6799 5.19898C51.6957 4.68875 50.7563 4.20403 49.868 3.74483C47.7015 2.64146 45.8291 1.7358 44.2186 0.970459H17.7866C7.97688 0.970459 -0.00511169 8.9364 -0.00511169 18.72V128.483C-0.00511169 138.126 7.86185 145.977 17.531 145.977H26.7208C40.0774 139.778 75.6034 121.844 81.061 104.1Z" fill="#FFB00F"/>
</g>
</svg>
