<svg width="15" height="15" viewBox="0 0 15 15" fill="none" xmlns="http://www.w3.org/2000/svg">
<path fill-rule="evenodd" clip-rule="evenodd" d="M8.32251 0.880207C8.26606 0.569208 7.99387 0.333374 7.66658 0.333374C7.2984 0.333374 6.99992 0.631851 6.99992 1.00004V7.00004H0.999919L0.880084 7.01078C0.569086 7.06723 0.333252 7.33943 0.333252 7.66671C0.333252 8.0349 0.631729 8.33337 0.999919 8.33337H6.99992V14.3334L7.01066 14.4532C7.06711 14.7642 7.33931 15 7.66658 15C8.03477 15 8.33325 14.7016 8.33325 14.3334V8.33337H14.3333L14.4531 8.32263C14.7641 8.26619 14.9999 7.99399 14.9999 7.66671C14.9999 7.29852 14.7014 7.00004 14.3333 7.00004H8.33325V1.00004L8.32251 0.880207Z" fill="#181818"/>
</svg>
