<svg width="50" height="10" viewBox="0 0 50 10" fill="none" xmlns="http://www.w3.org/2000/svg">
<path fill-rule="evenodd" clip-rule="evenodd" d="M4.1097 6.39182V7.03874H5.37732V2.06315H4.11048V2.69024C3.72951 2.25288 3.1734 1.974 2.51394 1.974C1.11222 1.974 0 3.08798 0 4.55093C0 6.02303 1.0712 7.11797 2.48239 7.11797C3.16155 7.11797 3.7287 6.83987 4.1097 6.39182ZM2.69773 3.12761C3.46998 3.12761 4.09866 3.71507 4.09866 4.55093C4.09866 5.38679 3.47076 5.9735 2.69773 5.97428C1.92549 5.97428 1.2968 5.36699 1.2968 4.55093C1.2968 3.72497 1.92549 3.12761 2.69773 3.12761Z" fill="black"/>
<path d="M11.5309 5.9339C11.0876 5.9339 10.9646 5.77463 10.9646 5.35709V3.14816H11.7786V2.06314H10.9646V0.849346H9.66618V2.06314H7.99389V1.76065C7.99389 1.34233 8.15877 1.18308 8.61234 1.18308H8.8971V0.217682H8.27235C7.20114 0.217682 6.6963 0.555991 6.6963 1.59073V2.06238H5.97534V3.14741H6.6963V7.03796H7.9947V3.14741H9.66696V5.58566C9.66696 6.60059 10.0685 7.03874 11.1192 7.03874H11.7889V5.9339H11.5309Z" fill="black"/>
<path fill-rule="evenodd" clip-rule="evenodd" d="M14.9307 6.03372C14.2405 6.03372 13.6946 5.6154 13.6015 4.87935H17.548C17.5685 4.77954 17.5787 4.67058 17.5787 4.56084C17.5787 3.06819 16.4665 1.97324 14.9315 1.97324C13.4067 1.97324 12.2527 3.05826 12.2527 4.56084C12.2527 6.06342 13.3444 7.11798 14.8999 7.11798C16.1873 7.11798 17.1662 6.44135 17.4754 5.3868H16.1462C15.8994 5.78453 15.4765 6.03372 14.9307 6.03372ZM14.9102 3.06816C15.5483 3.06816 16.095 3.456 16.1873 4.10292H13.6126C13.7459 3.44609 14.2712 3.06816 14.9102 3.06816Z" fill="black"/>
<path fill-rule="evenodd" clip-rule="evenodd" d="M23.0207 2.06315H21.7539V9.08612H23.0618V6.45203C23.4325 6.86957 23.9681 7.11872 24.6173 7.11872C26.0182 7.11872 27.1304 6.00398 27.1304 4.54103C27.1304 3.07883 26.0387 1.974 24.648 1.974C23.9681 1.974 23.4017 2.25211 23.0207 2.71005V2.06315ZM24.4327 3.12761C25.205 3.12761 25.8336 3.74477 25.8336 4.55093C25.8336 5.35709 25.205 5.9735 24.4327 5.97428C23.6605 5.97428 23.0318 5.36699 23.0318 4.55093C23.0318 3.72497 23.6605 3.12761 24.4327 3.12761Z" fill="black"/>
<path fill-rule="evenodd" clip-rule="evenodd" d="M31.7079 6.39182V7.03874H32.9748V2.06315H31.7079V2.69024C31.3269 2.25288 30.7707 1.974 30.1113 1.974C28.7104 1.974 27.5981 3.08798 27.5981 4.55093C27.5981 6.02303 28.6693 7.11797 30.0804 7.11797C30.7596 7.11797 31.3269 6.83987 31.7079 6.39182ZM30.2958 3.12761C31.0689 3.12761 31.6968 3.71507 31.6968 4.55093C31.6968 5.38679 31.0689 5.9735 30.2958 5.97428C29.5236 5.97428 28.8949 5.36699 28.8949 4.55093C28.8949 3.72497 29.5236 3.12761 30.2958 3.12761Z" fill="black"/>
<path d="M19.4702 2.5508C19.4702 2.5508 19.7928 1.974 20.5824 1.974C20.92 1.974 21.1385 2.086 21.1385 2.086V3.35543C21.1385 3.35543 20.6621 3.07121 20.2243 3.12836C19.7865 3.18551 19.5096 3.5741 19.5112 4.09376V7.03949H18.2034V2.06391H19.4702V2.5508Z" fill="black"/>
<path d="M38.8913 2.06314L35.6927 9.0701H34.3439L35.5997 6.36134L33.4763 2.06314H35.0051L36.2474 4.93496L37.5221 2.06314H38.8913Z" fill="black"/>
<path d="M49.1019 1.95038L45.9309 0.182642C45 -0.33625 43.8366 0.312176 43.8366 1.35072V1.53207C43.8366 1.69589 43.9272 1.84752 44.0739 1.92905L44.6727 2.26279C44.8485 2.36108 45.0678 2.2384 45.0678 2.04258V1.5915C45.0678 1.36596 45.3204 1.225 45.5223 1.33777L48.2688 2.8693C48.471 2.98207 48.471 3.264 48.2688 3.37602L45.5223 4.90755C45.3204 5.02032 45.0678 4.87935 45.0678 4.65381V4.41378C45.0678 3.37524 43.9044 2.72606 42.9729 3.2457L39.8019 5.01345C38.871 5.53236 38.871 6.83073 39.8019 7.34961L42.9729 9.11736C43.9035 9.63624 45.0678 8.98782 45.0678 7.94928V7.76793C45.0678 7.6041 44.9772 7.45323 44.8305 7.37094L44.2317 7.03644C44.0559 6.93816 43.8366 7.06083 43.8366 7.25667V7.70775C43.8366 7.93329 43.5843 8.07423 43.3821 7.96146L40.6356 6.42993C40.4337 6.31716 40.4337 6.03525 40.6356 5.92248L43.3821 4.39092C43.5843 4.27815 43.8366 4.41912 43.8366 4.64466V4.88469C43.8366 5.92323 45 6.57243 45.9309 6.05277L49.1019 4.28502C50.0328 3.76764 50.0328 2.46928 49.1019 1.95038Z" fill="black"/>
</svg>
