<svg width="17" height="16" viewBox="0 0 17 16" fill="none" xmlns="http://www.w3.org/2000/svg">
<path d="M14.5741 5.66895L13.1501 7.09295C13.4281 7.43995 13.6561 7.75695 13.8191 7.99995C13.0591 9.12995 10.9691 11.8199 8.25812 11.9849L6.44312 13.7999C6.93912 13.9239 7.45712 13.9999 8.00012 13.9999C12.7071 13.9999 15.7441 8.71595 15.8711 8.49195C16.0421 8.18795 16.0431 7.81595 15.8721 7.51195C15.8251 7.42695 15.3721 6.63095 14.5741 5.66895Z" fill="#272C37"/>
<path fill-rule="evenodd" clip-rule="evenodd" d="M0.999887 16C0.743887 16 0.487887 15.902 0.292887 15.707C-0.0981131 15.316 -0.0981131 14.684 0.291887 14.294L2.82089 11.765C1.17189 10.291 0.197887 8.61401 0.127887 8.48901C-0.0421132 8.18601 -0.0431132 7.81701 0.125887 7.51401C0.250887 7.28901 3.24489 2.00001 7.99989 2.00001C9.33089 2.00001 10.5149 2.43101 11.5479 3.03801L14.2929 0.293006C14.6839 -0.0979941 15.3159 -0.0979941 15.7069 0.293006C16.0979 0.684006 16.0979 1.31601 15.7069 1.70701L1.70689 15.707C1.51189 15.902 1.25589 16 0.999887 16ZM7.99989 4.00001C5.14589 4.00001 2.95789 6.83501 2.18089 7.99901C2.55889 8.56201 3.28489 9.51001 4.23989 10.346L6.07389 8.51201C6.02889 8.34801 5.99989 8.17801 5.99989 8.00001C5.99989 6.89501 6.89489 6.00001 7.99989 6.00001C8.17789 6.00001 8.34789 6.02901 8.51189 6.07401L10.0779 4.50801C9.43689 4.20101 8.74189 4.00001 7.99989 4.00001Z" fill="#272C37"/>
</svg>
