<svg width="24" height="18" viewBox="0 0 24 18" fill="none" xmlns="http://www.w3.org/2000/svg">
<path fill-rule="evenodd" clip-rule="evenodd" d="M18.7727 12.2478H9.33009C7.97027 12.2478 6.78882 11.5439 6.52209 10.574L4.52818 3.32221H2.40909C2.18327 3.32221 2 3.18892 2 3.02469C2 2.86046 2.18327 2.72717 2.40909 2.72717H4.86364C5.05836 2.72717 5.22609 2.82714 5.26455 2.96638L5.68974 4.51228H20.4091C20.5269 4.51228 20.6382 4.54918 20.7159 4.61285C20.7936 4.67652 20.8296 4.7622 20.8149 4.8467L20.1759 8.56452C20.0483 9.30772 19.1753 9.86766 18.146 9.86766H7.1627L7.32473 10.4568C7.51536 11.15 8.35891 11.6528 9.33009 11.6528H18.7727C18.9985 11.6528 19.1818 11.7861 19.1818 11.9503C19.1818 12.1145 18.9985 12.2478 18.7727 12.2478ZM8.95455 15.8181C10.0842 15.8181 11 15.152 11 14.3305C11 13.5089 10.0842 12.8428 8.95455 12.8428C7.82487 12.8428 6.90909 13.5089 6.90909 14.3305C6.90909 15.152 7.82487 15.8181 8.95455 15.8181ZM17.1364 15.8181C18.266 15.8181 19.1818 15.152 19.1818 14.3305C19.1818 13.5089 18.266 12.8428 17.1364 12.8428C16.0067 12.8428 15.0909 13.5089 15.0909 14.3305C15.0909 15.152 16.0067 15.8181 17.1364 15.8181Z" fill="white"/>
</svg>
