<svg width="16" height="16" viewBox="0 0 16 16" fill="none" xmlns="http://www.w3.org/2000/svg">
<path fill-rule="evenodd" clip-rule="evenodd" d="M12.7 5.2L15.3 6.1C15.7 6.2 16 6.6 16 7V13C16 13.6 15.6 14 15 14H11C10.95 14 10.9 13.975 10.85 13.95C10.8 13.925 10.75 13.9 10.7 13.9C10.1 15.2 8.9 16 7.5 16C6.1 16 4.9 15.2 4.3 14H1C0.4 14 0 13.6 0 13V1C0 0.4 0.4 0 1 0H10C10.4 0 10.8 0.2 10.9 0.6L12.7 5.2ZM11 12H14V7.7L11.6 7C11.3 6.9 11.1 6.7 11 6.4L9.3 2H2V12H4.1C4.3 10.3 5.7 9 7.5 9C9.3 9 10.8 10.3 11 12Z" fill="#181818"/>
<path d="M7 3H5V6C5 6.6 5.4 7 6 7H9V5H7V3Z" fill="#181818"/>
</svg>
