<svg width="24" height="24" viewBox="0 0 24 24" fill="none" xmlns="http://www.w3.org/2000/svg">
<g opacity="0.504139">
<path fill-rule="evenodd" clip-rule="evenodd" d="M10.1818 2C5.66312 2 2 5.66312 2 10.1818C2 14.7005 5.66312 18.3636 10.1818 18.3636C14.7005 18.3636 18.3636 14.7005 18.3636 10.1818C18.3636 5.66312 14.7005 2 10.1818 2ZM10.1818 3.81818C13.6964 3.81818 16.5455 6.66728 16.5455 10.1818C16.5455 13.6964 13.6964 16.5455 10.1818 16.5455C6.66728 16.5455 3.81818 13.6964 3.81818 10.1818C3.81818 6.66728 6.66728 3.81818 10.1818 3.81818ZM18.0117 16.7361C17.6551 16.4588 17.1394 16.484 16.8117 16.8117C16.4567 17.1667 16.4567 17.7423 16.8117 18.0974L20.4481 21.7337L20.5337 21.8094C20.8904 22.0867 21.406 22.0614 21.7337 21.7337C22.0888 21.3787 22.0888 20.8031 21.7337 20.4481L18.0974 16.8117L18.0117 16.7361Z" fill="#181818"/>
</g>
</svg>
