<svg width="39" height="9" viewBox="0 0 39 9" fill="none" xmlns="http://www.w3.org/2000/svg">
<path fill-rule="evenodd" clip-rule="evenodd" d="M1.93039 8.63703H0V0H1.93039V8.63703ZM6.7518 0H4.86271C4.86271 1.58943 4.15083 3.04828 2.90967 4.00271L2.16124 4.57808L5.06116 8.63737H7.44544L4.77714 4.9022C6.04196 3.60929 6.7518 1.86985 6.7518 0ZM9.83117 8.63468H8.00814V0.00165412H9.83117V8.63468ZM15.3413 2.66287V3.04488C14.8492 2.70031 14.2553 2.49781 13.6148 2.49781C11.9195 2.49781 10.5452 3.9086 10.5452 5.6489C10.5452 7.38921 11.9195 8.8 13.6148 8.8C14.2553 8.8 14.8492 8.5975 15.3413 8.25301V8.63468H17.0831V2.66287H15.3413ZM15.3355 5.6489C15.3355 6.49747 14.6289 7.18541 13.7573 7.18541C12.8857 7.18541 12.1791 6.49747 12.1791 5.6489C12.1791 4.80034 12.8857 4.11258 13.7573 4.11258C14.6289 4.11258 15.3355 4.80034 15.3355 5.6489ZM33.7164 3.04488V2.66287H35.458V8.63468H33.7164V8.25301C33.2243 8.5975 32.6304 8.8 31.9897 8.8C30.2944 8.8 28.9201 7.38921 28.9201 5.6489C28.9201 3.9086 30.2944 2.49781 31.9897 2.49781C32.6304 2.49781 33.2243 2.70031 33.7164 3.04488ZM32.1323 7.18541C33.004 7.18541 33.7105 6.49747 33.7105 5.6489C33.7105 4.80034 33.004 4.11258 32.1323 4.11258C31.2607 4.11258 30.5541 4.80034 30.5541 5.6489C30.5541 6.49747 31.2607 7.18541 32.1323 7.18541ZM36.214 7.63858C36.214 7.01885 36.7033 6.51653 37.307 6.51653C37.9106 6.51653 38.4 7.01885 38.4 7.63858C38.4 8.25813 37.9106 8.76053 37.307 8.76053C36.7033 8.76053 36.214 8.25813 36.214 7.63858ZM25.8252 2.50225C25.1294 2.50225 24.4709 2.72399 24.0307 3.33575V2.66322H22.2965V8.63468H24.052V5.49646C24.052 4.58835 24.6452 4.14365 25.3595 4.14365C26.125 4.14365 26.565 4.61308 26.565 5.4841V8.63468H28.3047V4.83708C28.3047 3.44736 27.2283 2.50225 25.8252 2.50225ZM19.7775 2.66296V3.44074C20.1267 2.97419 20.7772 2.66331 21.4845 2.66331V4.401L21.4748 4.40061C21.4712 4.40041 21.4676 4.40022 21.4638 4.40022C20.7747 4.40022 19.7815 4.90586 19.7815 5.84653V8.63468H17.9943V2.66296H19.7775Z" fill="#17120F"/>
</svg>
