<?xml version="1.0" encoding="utf-8"?>
<!-- Generator: Adobe Illustrator 23.0.0, SVG Export Plug-In . SVG Version: 6.00 Build 0)  -->
<svg version="1.1" id="Layer_1" xmlns="http://www.w3.org/2000/svg" xmlns:xlink="http://www.w3.org/1999/xlink" x="0px" y="0px"
	 viewBox="0 0 17 16" style="enable-background:new 0 0 17 16;" xml:space="preserve">
<style type="text/css">
	.st0{fill:#272C37;}
	.st1{fill-rule:evenodd;clip-rule:evenodd;fill:#272C37;}
	.st2{fill-rule:evenodd;clip-rule:evenodd;fill:#FFFFFF;}
</style>
<g>
	<path class="st0" d="M15.1,5.8l-1.4,1.4c0.3,0.3,0.5,0.7,0.7,0.9c-0.8,1.1-2.9,3.8-5.6,4L6.9,14c0.5,0.1,1,0.2,1.6,0.2
		c4.7,0,7.7-5.3,7.9-5.5c0.2-0.3,0.2-0.7,0-1C16.3,7.6,15.9,6.8,15.1,5.8z"/>
	<path class="st1" d="M6.9,14c-0.8-0.3-1.2-0.4-2.7-1.3l-1-0.8c-1.6-1.5-2.6-3.2-2.7-3.3c-0.2-0.3-0.2-0.7,0-1
		c0.1-0.2,3.1-5.5,7.9-5.5c1.3,0,2.5,0.4,3.5,1c0,0,2,1.2,3,2.6c0.3,0.4-1,1-1.4,1.4C13.7,7.3,7.2,14.1,6.9,14z M8.5,4.2
		c-2.9,0-5,2.8-5.8,4c0.4,0.6,1.1,1.5,2.1,2.3l1.8-1.8c0-0.2-0.1-0.3-0.1-0.5c0-1.1,0.9-2,2-2c0.2,0,0.3,0,0.5,0.1l1.6-1.6
		C9.9,4.4,9.2,4.2,8.5,4.2z"/>
	<path class="st2" d="M2.7,8.2c0,0,2.3-4,5.8-4c0,0,3.5-0.1,5.8,4c0,0-2.4,3.8-5.6,4C8.8,12.2,4.9,12.3,2.7,8.2z"/>
	<circle class="st1" cx="8.6" cy="8.2" r="2"/>
</g>
</svg>
