<svg width="36" height="10" viewBox="0 0 36 10" fill="none" xmlns="http://www.w3.org/2000/svg">
<path fill-rule="evenodd" clip-rule="evenodd" d="M21.492 0.203003H24.292C25.229 0.203003 25.935 0.451003 26.334 0.918003C26.696 1.343 26.816 1.951 26.691 2.725C26.413 4.494 25.348 5.387 23.504 5.387H22.618C22.427 5.387 22.264 5.526 22.234 5.715L21.913 7.751C21.892 7.883 21.778 7.981 21.644 7.981H20.207C20.063 7.981 19.954 7.853 19.976 7.711L21.108 0.531003C21.138 0.342003 21.301 0.203003 21.492 0.203003ZM22.952 3.831C23.694 3.831 24.462 3.831 24.615 2.826C24.671 2.473 24.627 2.218 24.48 2.045C24.2306 1.75378 23.7458 1.75516 23.1842 1.75676C23.1422 1.75688 23.0998 1.757 23.057 1.757C22.942 1.757 22.844 1.841 22.826 1.954L22.53 3.831H22.952Z" fill="#009EE3"/>
<path fill-rule="evenodd" clip-rule="evenodd" d="M1.52005 0.203003H4.32005C5.25705 0.203003 5.96205 0.451003 6.36205 0.919003C6.72405 1.344 6.84405 1.952 6.71905 2.726C6.44105 4.495 5.37605 5.388 3.53205 5.388H2.64605C2.45505 5.388 2.29205 5.527 2.26205 5.716L1.95605 7.653C1.92605 7.842 1.76305 7.981 1.57205 7.981H0.235051C0.0910513 7.981 -0.0179487 7.853 0.00405133 7.711L1.13605 0.531003C1.16605 0.342003 1.32905 0.203003 1.52005 0.203003ZM2.98005 3.831C3.72205 3.831 4.49005 3.831 4.64305 2.826C4.69905 2.473 4.65405 2.218 4.50705 2.045C4.26105 1.757 3.78305 1.757 3.27805 1.757H3.08405C2.96905 1.757 2.87105 1.841 2.85305 1.954L2.55705 3.831H2.98005Z" fill="#113984"/>
<path fill-rule="evenodd" clip-rule="evenodd" d="M11.349 2.794H12.69C12.833 2.794 12.942 2.922 12.92 3.065L12.195 7.655C12.165 7.844 12.002 7.983 11.811 7.983H10.603C10.459 7.983 10.35 7.855 10.372 7.713L10.432 7.34C10.432 7.34 9.76996 8.107 8.57596 8.107C7.87996 8.107 7.29596 7.906 6.88696 7.425C6.44196 6.901 6.25996 6.15 6.38796 5.365C6.63396 3.791 7.89996 2.668 9.38096 2.668C10.5961 2.668 10.8959 3.12037 11.0352 3.33054C11.0437 3.3433 11.0515 3.35518 11.059 3.366L11.118 2.991C11.136 2.878 11.234 2.794 11.349 2.794ZM9.30796 6.684C10.083 6.684 10.692 6.17 10.821 5.404C10.88 5.033 10.799 4.696 10.595 4.455C10.391 4.216 10.082 4.09 9.70096 4.09C8.93696 4.09 8.31896 4.621 8.19796 5.38C8.13496 5.753 8.20996 6.087 8.40796 6.322C8.60796 6.559 8.91896 6.684 9.30796 6.684Z" fill="#113984"/>
<path fill-rule="evenodd" clip-rule="evenodd" d="M31.3209 2.794H32.6619C32.8049 2.794 32.9149 2.922 32.8919 3.065L32.1669 7.655C32.1369 7.844 31.9739 7.983 31.7829 7.983H30.5749C30.4309 7.983 30.3219 7.855 30.3439 7.713L30.4039 7.34C30.4039 7.34 29.7419 8.107 28.5479 8.107C27.8519 8.107 27.2679 7.906 26.8589 7.425C26.4139 6.901 26.2319 6.15 26.3599 5.365C26.6059 3.791 27.8719 2.668 29.3529 2.668C30.5681 2.668 30.8678 3.12037 31.0071 3.33054C31.0156 3.3433 31.0234 3.35518 31.0309 3.366L31.0899 2.991C31.1079 2.878 31.2059 2.794 31.3209 2.794ZM29.2799 6.684C30.0549 6.684 30.6629 6.17 30.7929 5.404C30.8519 5.033 30.7709 4.696 30.5669 4.455C30.3629 4.216 30.0539 4.09 29.6729 4.09C28.9089 4.09 28.2909 4.621 28.1699 5.38C28.1069 5.753 28.1819 6.087 28.3799 6.322C28.5799 6.559 28.8909 6.684 29.2799 6.684Z" fill="#009EE3"/>
<path d="M19.8311 2.79401H18.4831C18.3541 2.79401 18.2341 2.85801 18.1611 2.96501L16.3021 5.70301L15.5141 3.07201C15.4651 2.90701 15.3131 2.79401 15.1411 2.79401H13.8161C13.6561 2.79401 13.5431 2.95101 13.5951 3.10301L15.0791 7.45901L13.6831 9.42901C13.5731 9.58401 13.6841 9.79701 13.8731 9.79701H15.2191C15.3471 9.79701 15.4661 9.73401 15.5391 9.63001L20.0211 3.16101C20.1301 3.00501 20.0191 2.79401 19.8311 2.79401Z" fill="#113984"/>
<path d="M34.2419 0.400991L33.0929 7.71299C33.0709 7.85499 33.1799 7.98299 33.3239 7.98299H34.4799C34.6709 7.98299 34.8339 7.84399 34.8639 7.65499L35.9969 0.474991C36.0189 0.332991 35.9099 0.204991 35.7659 0.204991H34.4719C34.3579 0.202991 34.2599 0.286991 34.2419 0.400991Z" fill="#009EE3"/>
</svg>
