<svg width="16" height="16" viewBox="0 0 16 16" fill="none" xmlns="http://www.w3.org/2000/svg">
<path fill-rule="evenodd" clip-rule="evenodd" d="M16 10.3333V5.00001C16 4.81591 15.8508 4.66667 15.6667 4.66667H12.3333H9.66667L7 4.66667H4.33333H1C0.815906 4.66667 0.666668 4.81591 0.666668 5.00001V10.3333C0.666668 10.5174 0.815906 10.6667 1 10.6667H15.6667C15.8508 10.6667 16 10.5174 16 10.3333ZM4 5.33334V6.33334L4.00537 6.39326C4.03359 6.54876 4.16969 6.66667 4.33333 6.66667C4.51743 6.66667 4.66667 6.51743 4.66667 6.33334V5.33334H6.66667V7.00001L6.67204 7.05992C6.70026 7.21542 6.83636 7.33334 7 7.33334C7.18409 7.33334 7.33333 7.1841 7.33333 7.00001V5.33334L9.33333 5.33334V6.33334L9.3387 6.39326C9.36693 6.54876 9.50303 6.66667 9.66667 6.66667C9.85076 6.66667 10 6.51743 10 6.33334V5.33334H12V7.00001L12.0054 7.05992C12.0336 7.21542 12.1697 7.33334 12.3333 7.33334C12.5174 7.33334 12.6667 7.1841 12.6667 7.00001V5.33334H15.3333V10H1.33333V5.33334H4Z" fill="black"/>
</svg>
