<svg width="92" height="74" viewBox="0 0 92 74" fill="none" xmlns="http://www.w3.org/2000/svg">
<path d="M31.9654 73V74H32.9654V73H31.9654ZM31.9654 50.2854L30.9656 50.2641L30.9654 50.2748V50.2854H31.9654ZM1 73H0V74H1V73ZM8.09906 25.3266L8.99702 25.7667L8.09906 25.3266ZM25.6101 2L26.1146 1.13658L25.5029 0.779166L24.9628 1.23773L25.6101 2ZM44 12.7452L44.8466 13.2774L45.3964 12.4029L44.5045 11.8818L44 12.7452ZM77.9654 73V74H78.9654V73H77.9654ZM77.9654 50.2854L76.9656 50.2641L76.9654 50.2748V50.2854H77.9654ZM47 73H46V74H47V73ZM54.0991 25.3266L54.997 25.7667L54.0991 25.3266ZM71.6101 2L72.1146 1.13658L71.5028 0.779166L70.9628 1.23773L71.6101 2ZM90 12.7452L90.8466 13.2774L91.3964 12.4029L90.5045 11.8818L90 12.7452ZM32.9654 73V50.2854H30.9654V73H32.9654ZM1 74H31.9654V72H1V74ZM0 52.5977V73H2V52.5977H0ZM7.20109 24.8866C2.41834 34.6458 0 43.8869 0 52.5977H2C2 44.2612 4.31436 35.3217 8.99702 25.7667L7.20109 24.8866ZM24.9628 1.23773C17.8995 7.23537 11.9835 15.128 7.20109 24.8866L8.99702 25.7667C13.68 16.2111 19.4381 8.55263 26.2573 2.76227L24.9628 1.23773ZM44.5045 11.8818L26.1146 1.13658L25.1056 2.86342L43.4955 13.6086L44.5045 11.8818ZM32.9652 50.3067C33.2312 37.8183 37.1759 25.4792 44.8466 13.2774L43.1534 12.213C35.3188 24.6754 31.2405 37.363 30.9656 50.2641L32.9652 50.3067ZM78.9654 73V50.2854H76.9654V73H78.9654ZM47 74H77.9654V72H47V74ZM46 52.5977V73H48V52.5977H46ZM53.2011 24.8866C48.4183 34.6458 46 43.8869 46 52.5977H48C48 44.2612 50.3144 35.3217 54.997 25.7667L53.2011 24.8866ZM70.9628 1.23773C63.8994 7.23537 57.9835 15.128 53.2011 24.8866L54.997 25.7667C59.68 16.2111 65.4381 8.55263 72.2573 2.76227L70.9628 1.23773ZM90.5045 11.8818L72.1146 1.13658L71.1056 2.86342L89.4955 13.6086L90.5045 11.8818ZM78.9652 50.3067C79.2312 37.8183 83.1759 25.4792 90.8466 13.2774L89.1534 12.213C81.3188 24.6754 77.2405 37.363 76.9656 50.2641L78.9652 50.3067Z" fill="#434343"/>
</svg>
