<svg width="50" height="16" viewBox="0 0 50 16" fill="none" xmlns="http://www.w3.org/2000/svg">
<rect y="3.70248" width="21" height="8.38235" fill="#E6E6E6"/>
<path d="M1.36957 15.6143H19.6304C20.3869 15.6143 21 15.0218 21 14.2907V12.0848H0V14.2907C0 15.0218 0.613109 15.6143 1.36957 15.6143Z" fill="#E79800"/>
<path d="M19.6304 0.614258H1.36957C0.613109 0.614258 0 1.20676 0 1.93779V4.14367H21V1.93779C21 1.20676 20.3869 0.614258 19.6304 0.614258Z" fill="#1A1876"/>
<path d="M8.32593 10.2319H9.51699L10.2625 6.0072H9.07097L8.32593 10.2319Z" fill="#1A1876"/>
<path d="M12.6653 7.70353C12.2489 7.50809 11.9937 7.3775 11.9964 7.17986C11.9964 7.00427 12.2124 6.81633 12.6789 6.81633C13.0606 6.81059 13.3683 6.88559 13.6778 7.02677L13.8394 6.11089C13.6034 6.0253 13.2336 5.93353 12.7716 5.93353C11.5943 5.93353 10.7648 6.50662 10.7579 7.32765C10.7511 7.93471 11.35 8.27353 11.802 8.47559C12.2658 8.6825 12.4219 8.81486 12.4196 8.99971C12.4169 9.28294 12.0494 9.41221 11.7066 9.41221C11.1779 9.41221 10.9113 9.33324 10.4315 9.12324L10.2644 10.0691C10.5429 10.1869 11.0574 10.2893 11.592 10.2946C12.8447 10.2946 13.6577 9.72809 13.6669 8.85103C13.6701 8.37059 13.3528 8.00486 12.6653 7.70353Z" fill="#1A1876"/>
<path fill-rule="evenodd" clip-rule="evenodd" d="M15.9736 6.01117H16.8944L17.8595 10.2332H16.7538C16.7538 10.2332 16.6443 9.74793 16.6086 9.60014C16.5165 9.60014 16.132 9.59964 15.7705 9.59918C15.4496 9.59877 15.1469 9.59838 15.0825 9.59838C15.0359 9.71264 14.8314 10.2332 14.8314 10.2332H13.5801L15.3496 6.36146C15.4751 6.08661 15.6883 6.01117 15.9736 6.01117ZM16.0581 7.15029C15.9608 7.40617 15.4746 8.61279 15.4253 8.73455H16.4146C16.1987 7.77705 16.174 7.67161 16.1502 7.56597C16.1352 7.4992 16.1205 7.43236 16.0581 7.15029Z" fill="#1A1876"/>
<path d="M7.32672 6.01028L6.15985 8.89116L6.03567 8.30572L5.61796 6.3641C5.54583 6.09675 5.33674 6.01689 5.07789 6.00763H3.15593L3.14087 6.09542C3.60835 6.20484 4.02606 6.36278 4.39265 6.55866L5.45224 10.2279L6.71315 10.2266L8.589 6.00984H7.32672V6.01028Z" fill="#1A1876"/>
<rect x="29" y="0.614258" width="21" height="15" rx="3" fill="#243747"/>
<ellipse cx="37.2174" cy="8.11425" rx="3.65217" ry="3.52941" fill="#E61C24"/>
<ellipse cx="41.7525" cy="8.11425" rx="3.65217" ry="3.52941" fill="#F99F1B"/>
<path d="M39.485 5.35074C38.6104 6.01885 38.1003 7.03695 38.1003 8.11427C38.1003 9.19159 38.6104 10.2097 39.485 10.8778C40.3595 10.2097 40.8696 9.19159 40.8696 8.11427C40.8696 7.03695 40.3595 6.01885 39.485 5.35074V5.35074Z" fill="#F26622"/>
</svg>
