<svg width="14" height="17" viewBox="0 0 14 17" fill="none" xmlns="http://www.w3.org/2000/svg">
<path d="M8.43308 10.019L7.90308 12.319L9.00308 13.419V16H11.0031V13C11.003 12.7348 10.8976 12.4805 10.7101 12.293L8.43308 10.019Z" fill="#181818"/>
<path d="M4.89994 7.55702L5.39994 5.36902L2.75694 6.03002C2.58131 6.07406 2.42094 6.16496 2.29294 6.29302L0.585938 8.00002L1.99994 9.41402L3.51094 7.90002L4.89994 7.55702Z" fill="#181818"/>
<path d="M12.6839 6.05204L10.1479 6.90004L8.3999 5.72904L8.5869 4.90004C9.45186 4.63317 10.0297 3.81861 9.99585 2.91405C9.96195 2.00948 9.32473 1.24046 8.44222 1.03907C7.55971 0.837674 6.65196 1.25413 6.229 2.05443C5.80605 2.85474 5.97335 3.83935 6.6369 4.45504L4.0249 15.775L5.9739 16.224L7.9159 7.81204L9.4449 8.83204C9.60925 8.94163 9.80237 9.00008 9.9999 9.00004C10.1074 9.00013 10.2141 8.98257 10.3159 8.94804L13.3159 7.94804L12.6839 6.05204Z" fill="#181818"/>
</svg>
