<svg width="41" height="16" viewBox="0 0 41 16" fill="none" xmlns="http://www.w3.org/2000/svg">
<path d="M14.2447 5.39261L11.027 8.27883H3.05773C2.31439 8.27784 1.59637 8.54805 1.03906 9.03853L5.05843 5.4323L5.1201 5.37782L10.1558 0.856218C10.9678 0.127906 12.1078 -0.113137 13.1463 0.223887C14.1848 0.560911 14.9642 1.4248 15.1907 2.49014C15.4173 3.55547 15.0567 4.6604 14.2447 5.38872V5.39261Z" fill="#F15B41"/>
<ellipse cx="3.05766" cy="3.12676" rx="3.05766" ry="3.04891" fill="#F99D1D"/>
<path d="M3.05778 8.27884C2.31444 8.27784 1.59642 8.54806 1.03911 9.03854L1.01335 9.06189C-0.24207 10.1878 -0.344471 12.1153 0.784633 13.3671C1.91374 14.6189 3.84678 14.721 5.1022 13.5952L11.0278 8.27962L3.05778 8.27884Z" fill="#272560"/>
<path d="M11.0229 8.28116L5.09661 13.5967C4.53546 14.0999 3.8069 14.3773 3.05225 14.3751L12.1953 14.3751C13.9589 14.347 15.204 13.024 15.204 11.3266C15.204 9.62917 13.8647 8.30465 12.1953 8.27805L11.0229 8.28116Z" fill="#00B6BD"/>
<path d="M19.6366 11.8263C19.3821 11.8356 19.1358 11.7355 18.9608 11.5515C18.7895 11.3658 18.6982 11.1207 18.7063 10.8689C18.7039 10.6152 18.767 10.3652 18.8896 10.1426C18.9972 9.94367 19.1287 9.75837 19.2811 9.59078L23.0642 5.33927H19.7666C19.4471 5.33927 19.2185 5.2303 19.0932 5.01391C18.9712 4.79653 18.9103 4.55052 18.917 4.30169C18.9082 4.06189 18.9777 3.82569 19.1151 3.6284C19.2513 3.44169 19.473 3.33576 19.7047 3.34662H25.5309C25.7773 3.33534 26.0175 3.42479 26.1958 3.59415C26.361 3.75839 26.4448 3.9919 26.4448 4.28768C26.4518 4.51801 26.4034 4.74668 26.3038 4.95475C26.2082 5.13604 26.0884 5.30362 25.9475 5.45292L22.0078 9.83285H25.7408C25.9654 9.82729 26.1792 9.92848 26.3164 10.1053C26.4626 10.3029 26.5363 10.5444 26.5254 10.7895C26.5361 11.0448 26.4745 11.2981 26.3477 11.5204C26.22 11.7235 25.9937 11.8271 25.6758 11.8271L19.6366 11.8263Z" fill="#272560"/>
<path fill-rule="evenodd" clip-rule="evenodd" d="M27.8027 2.32617C28.0533 2.55813 28.3846 2.67566 28.7886 2.67566V2.678C29.1904 2.678 29.5216 2.56435 29.7746 2.33006C30.0275 2.09577 30.1559 1.77741 30.1559 1.38433C30.1559 0.943771 30.0079 0.612182 29.7166 0.398906C29.4496 0.197587 29.1238 0.0882814 28.7886 0.0875549C28.3822 0.0875549 28.0494 0.211317 27.8012 0.453393C27.5495 0.696201 27.4117 1.03274 27.4214 1.38122C27.4214 1.7743 27.5521 2.09421 27.8027 2.32617ZM27.5357 10.9654C27.5357 11.4091 27.7518 11.9384 28.7886 11.9384C29.1528 11.9384 29.4386 11.8706 29.661 11.7095C29.8834 11.5484 29.9962 11.2869 29.9962 10.9311V4.39277C29.9962 4.05028 29.8811 3.78407 29.6735 3.61906C29.466 3.45404 29.1747 3.37075 28.8067 3.37075C28.3697 3.37075 28.0455 3.4735 27.8419 3.6751C27.6383 3.8767 27.5357 4.15069 27.5357 4.48928V10.9654Z" fill="#272560"/>
<path fill-rule="evenodd" clip-rule="evenodd" d="M31.5246 13.4306C31.5246 13.8821 31.7298 14.4199 32.6992 14.4199C33.1276 14.4199 33.4299 14.3444 33.6264 14.1794C33.823 14.0144 33.9224 13.7466 33.9224 13.3839V11.2978C34.0238 11.4051 34.1367 11.5009 34.2592 11.5835C34.4851 11.7347 34.7303 11.8554 34.9882 11.9423C35.3474 12.0561 35.7234 12.1088 36.1002 12.098C36.6629 12.1073 37.2206 11.991 37.7322 11.7579C38.2023 11.5374 38.6162 11.2141 38.9428 10.8121C39.2818 10.3855 39.5354 9.89826 39.6899 9.37677C39.8647 8.7897 39.9508 8.18004 39.9452 7.5678C39.95 6.96677 39.8752 6.36771 39.7228 5.78608C39.5895 5.27133 39.3582 4.78674 39.0415 4.35852C38.7375 3.95815 38.3436 3.63401 37.8911 3.412C37.3967 3.17723 36.854 3.06048 36.3061 3.07106C35.7345 3.06285 35.1725 3.2185 34.6875 3.51941C34.488 3.64187 34.3039 3.78769 34.1393 3.95375C34.0793 4.01654 34.0232 4.07778 33.971 4.13745C33.971 3.76772 33.8371 3.51007 33.5794 3.37853C33.3366 3.25711 33.0681 3.1952 32.7963 3.19794C32.3594 3.19794 32.0344 3.30069 31.8316 3.50229C31.6273 3.70519 31.5162 3.98285 31.5246 4.26978V13.4306ZM34.913 5.32605C35.1488 5.20175 35.4128 5.13983 35.6797 5.14624C35.941 5.14277 36.1989 5.2063 36.4283 5.33072C36.6488 5.45414 36.8367 5.62781 36.9765 5.83745C37.1337 6.0759 37.2491 6.33908 37.3179 6.61584C37.4 6.93767 37.441 7.26848 37.4401 7.6005C37.4401 8.31739 37.2827 8.92375 36.9874 9.37911C36.6922 9.83446 36.267 10.0555 35.6828 10.0555C35.0986 10.0555 34.6734 9.84925 34.3602 9.40791C34.0469 8.96656 33.8903 8.35864 33.8903 7.6005C33.8878 7.2676 33.9275 6.93573 34.0086 6.61272C34.0774 6.33477 34.1954 6.0712 34.357 5.83434C34.501 5.62498 34.6911 5.45112 34.913 5.32605Z" fill="#272560"/>
</svg>
