<svg width="20" height="20" viewBox="0 0 20 20" fill="none" xmlns="http://www.w3.org/2000/svg">
<path fill-rule="evenodd" clip-rule="evenodd" d="M10 15.2193L4.96826 17.6769C4.60809 17.8528 4.19771 17.5547 4.25372 17.1578L5.03619 11.6128L1.14393 7.58682C0.865332 7.29865 1.02208 6.81622 1.41686 6.74684L6.9322 5.77753L9.55839 0.831666C9.74637 0.47765 10.2536 0.47765 10.4416 0.831666L13.0678 5.77753L18.5831 6.74684C18.9779 6.81622 19.1347 7.29865 18.8561 7.58682L14.9638 11.6128L15.7463 17.1578C15.8023 17.5547 15.3919 17.8528 15.0317 17.6769L10 15.2193Z" fill="#e6e6e4"/>
<mask id="mask0" mask-type="alpha" maskUnits="userSpaceOnUse" x="1" y="0" width="18" height="18">
<path fill-rule="evenodd" clip-rule="evenodd" d="M10 15.2193L4.96825 17.6769C4.60809 17.8528 4.19771 17.5547 4.25372 17.1578L5.03619 11.6128L1.14393 7.58682C0.865332 7.29865 1.02208 6.81622 1.41686 6.74684L6.9322 5.77753L9.55839 0.831666C9.74637 0.47765 10.2536 0.47765 10.4416 0.831666L13.0678 5.77753L18.5831 6.74684C18.9779 6.81622 19.1347 7.29865 18.8561 7.58682L14.9638 11.6128L15.7463 17.1578C15.8023 17.5547 15.3919 17.8528 15.0317 17.6769L10 15.2193Z" fill="#e6e6e4"/>
</mask>
<g mask="url(#mask0)">
<rect x="10" y="-1" width="10" height="20" fill="#e6e6e4"/>
</g>
</svg>
