<svg width="70" height="32" viewBox="0 0 70 32" fill="none" xmlns="http://www.w3.org/2000/svg">
<rect x="0.5" y="0.5" width="69" height="31" stroke="#333333"/>
<path fill-rule="evenodd" clip-rule="evenodd" d="M13.4015 18.8456V19.5385H14.7591V14.2096H13.4023V14.8813C12.9943 14.4128 12.3987 14.1142 11.6924 14.1142C10.1912 14.1142 9 15.3072 9 16.8741C9 18.4507 10.1473 19.6234 11.6586 19.6234C12.386 19.6234 12.9934 19.3255 13.4015 18.8456ZM11.8893 15.3497C12.7163 15.3497 13.3897 15.9788 13.3897 16.8741C13.3897 17.7693 12.7172 18.3976 11.8893 18.3985C11.0622 18.3985 10.3889 17.7481 10.3889 16.8741C10.3889 15.9895 11.0622 15.3497 11.8893 15.3497Z" fill="black"/>
<path d="M21.3494 18.3552C20.8747 18.3552 20.7429 18.1846 20.7429 17.7375V15.3717H21.6147V14.2096H20.7429V12.9097H19.3523V14.2096H17.5613V13.8857C17.5613 13.4376 17.7379 13.2671 18.2236 13.2671H18.5286V12.2331H17.8595C16.7122 12.2331 16.1716 12.5955 16.1716 13.7037V14.2088H15.3994V15.3709H16.1716V19.5377H17.5621V15.3709H19.3531V17.9822C19.3531 19.0692 19.7832 19.5385 20.9085 19.5385H21.6257V18.3552H21.3494Z" fill="black"/>
<path fill-rule="evenodd" clip-rule="evenodd" d="M24.9907 18.4621C24.2515 18.4621 23.6669 18.0141 23.5672 17.2258H27.7938C27.8158 17.1189 27.8268 17.0022 27.8268 16.8847C27.8268 15.286 26.6356 14.1133 24.9915 14.1133C23.3585 14.1133 22.1226 15.2754 22.1226 16.8847C22.1226 18.4939 23.2918 19.6234 24.9578 19.6234C26.3365 19.6234 27.3849 18.8987 27.7161 17.7693H26.2926C26.0282 18.1952 25.5753 18.4621 24.9907 18.4621ZM24.9687 15.286C25.6522 15.286 26.2376 15.7014 26.3365 16.3942H23.579C23.7218 15.6908 24.2844 15.286 24.9687 15.286Z" fill="black"/>
<path fill-rule="evenodd" clip-rule="evenodd" d="M33.6551 14.2096H32.2983V21.7312H33.699V18.9101C34.0961 19.3573 34.6697 19.6242 35.365 19.6242C36.8654 19.6242 38.0566 18.4303 38.0566 16.8635C38.0566 15.2974 36.8874 14.1142 35.398 14.1142C34.6697 14.1142 34.0631 14.412 33.6551 14.9025V14.2096ZM35.1673 15.3497C35.9944 15.3497 36.6677 16.0107 36.6677 16.8741C36.6677 17.7375 35.9944 18.3976 35.1673 18.3985C34.3403 18.3985 33.6669 17.7481 33.6669 16.8741C33.6669 15.9895 34.3403 15.3497 35.1673 15.3497Z" fill="black"/>
<path fill-rule="evenodd" clip-rule="evenodd" d="M42.9592 18.8456V19.5385H44.316V14.2096H42.9592V14.8813C42.5511 14.4128 41.9554 14.1142 41.2492 14.1142C39.7488 14.1142 38.5576 15.3072 38.5576 16.8741C38.5576 18.4507 39.7049 19.6234 41.2161 19.6234C41.9435 19.6234 42.5511 19.3255 42.9592 18.8456ZM41.4468 15.3497C42.2748 15.3497 42.9473 15.9788 42.9473 16.8741C42.9473 17.7693 42.2748 18.3976 41.4468 18.3985C40.6198 18.3985 39.9465 17.7481 39.9465 16.8741C39.9465 15.9895 40.6198 15.3497 41.4468 15.3497Z" fill="black"/>
<path d="M29.8524 14.7319C29.8524 14.7319 30.1979 14.1142 31.0435 14.1142C31.4051 14.1142 31.6392 14.2341 31.6392 14.2341V15.5937C31.6392 15.5937 31.1289 15.2893 30.66 15.3505C30.1911 15.4117 29.8946 15.8279 29.8963 16.3844V19.5393H28.4956V14.2105H29.8524V14.7319Z" fill="black"/>
<path d="M50.6525 14.2096L47.2268 21.7141H45.7822L47.1272 18.813L44.853 14.2096H46.4904L47.8209 17.2854L49.1861 14.2096H50.6525Z" fill="black"/>
<path d="M61.5879 14.0889L58.1918 12.1956C57.1948 11.6399 55.9488 12.3343 55.9488 13.4466V13.6408C55.9488 13.8163 56.0458 13.9787 56.2029 14.066L56.8443 14.4234C57.0325 14.5287 57.2674 14.3973 57.2674 14.1876V13.7045C57.2674 13.4629 57.5379 13.312 57.7542 13.4328L60.6957 15.073C60.9122 15.1938 60.9122 15.4957 60.6957 15.6157L57.7542 17.256C57.5379 17.3768 57.2674 17.2258 57.2674 16.9842V16.7272C57.2674 15.6149 56.0214 14.9196 55.0238 15.4761L51.6276 17.3694C50.6306 17.9252 50.6306 19.3157 51.6276 19.8714L55.0238 21.7647C56.0204 22.3204 57.2674 21.626 57.2674 20.5137V20.3195C57.2674 20.144 57.1704 19.9824 57.0133 19.8943L56.3719 19.536C56.1837 19.4308 55.9488 19.5621 55.9488 19.7719V20.255C55.9488 20.4966 55.6786 20.6475 55.462 20.5267L52.5205 18.8865C52.3043 18.7657 52.3043 18.4638 52.5205 18.343L55.462 16.7027C55.6786 16.5819 55.9488 16.7329 55.9488 16.9744V17.2315C55.9488 18.3438 57.1948 19.0391 58.1918 18.4825L61.5879 16.5893C62.5849 16.0351 62.5849 14.6446 61.5879 14.0889Z" fill="black"/>
</svg>
