<svg width="23" height="23" viewBox="0 0 23 23" fill="none" xmlns="http://www.w3.org/2000/svg">
<path d="M0.5 4.5H22.5" stroke="#181818" stroke-linecap="round" stroke-linejoin="round"/>
<path d="M0.5 8.5H22.5" stroke="#181818" stroke-linecap="round" stroke-linejoin="round"/>
<path d="M8.5 16.5H2.5C1.395 16.5 0.5 15.605 0.5 14.5V2.5C0.5 1.395 1.395 0.5 2.5 0.5H15.5H20.5C21.605 0.5 22.5 1.395 22.5 2.5V12.5" stroke="#181818" stroke-linecap="round" stroke-linejoin="round"/>
<path d="M4.5 12.5H9.5" stroke="#181818" stroke-linecap="round" stroke-linejoin="round"/>
<rect x="12.5" y="15.5" width="8" height="7" stroke="#181818" stroke-linecap="round" stroke-linejoin="round"/>
<path d="M14.5 15.5V13.5C14.5 12.4 15.4 11.5 16.5 11.5V11.5C17.6 11.5 18.5 12.4 18.5 13.5V15.5" stroke="#181818" stroke-linecap="round" stroke-linejoin="round"/>
<path d="M16.5 18.5V19.5" stroke="#181818" stroke-linecap="round" stroke-linejoin="round"/>
</svg>
