<svg width="48" height="12" viewBox="0 0 48 12" fill="none" xmlns="http://www.w3.org/2000/svg">
<path fill-rule="evenodd" clip-rule="evenodd" d="M2.36473 11.1595H0V0.166931H2.36473V11.1595ZM8.27096 0.166931H5.95682C5.95682 2.18985 5.08477 4.04656 3.56435 5.26129L2.64752 5.99358L6.19992 11.16H9.12067L5.85199 6.40609C7.4014 4.76057 8.27096 2.54674 8.27096 0.166931ZM12.0432 11.1565H9.80998V0.169036H12.0432V11.1565ZM18.7931 3.55604V4.04224C18.1903 3.60368 17.4628 3.34596 16.6781 3.34596C14.6014 3.34596 12.9178 5.14151 12.9178 7.35644C12.9178 9.57138 14.6014 11.3669 16.6781 11.3669C17.4628 11.3669 18.1903 11.1092 18.7931 10.6708V11.1565H20.9268V3.55604H18.7931ZM18.786 7.35644C18.786 8.43643 17.9204 9.31199 16.8526 9.31199C15.785 9.31199 14.9194 8.43643 14.9194 7.35644C14.9194 6.27645 15.785 5.40112 16.8526 5.40112C17.9204 5.40112 18.786 6.27645 18.786 7.35644ZM41.3025 4.04224V3.55604H43.4361V11.1565H41.3025V10.6708C40.6998 11.1092 39.9722 11.3669 39.1874 11.3669C37.1107 11.3669 35.4272 9.57138 35.4272 7.35644C35.4272 5.14151 37.1107 3.34596 39.1874 3.34596C39.9722 3.34596 40.6998 3.60368 41.3025 4.04224ZM39.3621 9.31199C40.4299 9.31199 41.2954 8.43643 41.2954 7.35644C41.2954 6.27645 40.4299 5.40112 39.3621 5.40112C38.2943 5.40112 37.4288 6.27645 37.4288 7.35644C37.4288 8.43643 38.2943 9.31199 39.3621 9.31199ZM44.3622 9.88875C44.3622 9.10001 44.9616 8.4607 45.701 8.4607C46.4405 8.4607 47.04 9.10001 47.04 9.88875C47.04 10.6773 46.4405 11.3167 45.701 11.3167C44.9616 11.3167 44.3622 10.6773 44.3622 9.88875ZM31.6358 3.35161C30.7835 3.35161 29.9769 3.63382 29.4376 4.41243V3.55648H27.3132V11.1565H29.4637V7.16243C29.4637 6.00665 30.1904 5.44067 31.0654 5.44067C32.0031 5.44067 32.5421 6.03812 32.5421 7.1467V11.1565H34.6732V6.32321C34.6732 4.55448 33.3547 3.35161 31.6358 3.35161ZM24.2275 3.55615V4.54606C24.6552 3.95227 25.4521 3.55659 26.3185 3.55659V5.76821C26.3145 5.76815 26.3106 5.76793 26.3067 5.76771L26.299 5.76733L26.2932 5.76721C25.449 5.76721 24.2323 6.41075 24.2323 7.60797V11.1565H22.043V3.55615H24.2275Z" fill="#17120F"/>
</svg>
