<svg width="70" height="32" viewBox="0 0 70 32" fill="none" xmlns="http://www.w3.org/2000/svg">
<rect x="0.5" y="0.5" width="69" height="31" stroke="#333333"/>
<path fill-rule="evenodd" clip-rule="evenodd" d="M16.1114 21.2763H14V11.4615H16.1114V21.2763ZM21.3848 11.4615H19.3186C19.3186 13.2677 18.54 14.9255 17.1825 16.0101L16.3639 16.6639L19.5356 21.2767H22.1435L19.225 17.0322C20.6084 15.563 21.3848 13.5864 21.3848 11.4615ZM24.7528 21.2737H22.7589V11.4634H24.7528V21.2737ZM30.7796 14.4875V14.9216C30.2414 14.5301 29.5918 14.3 28.8912 14.3C27.0369 14.3 25.5338 15.9031 25.5338 17.8807C25.5338 19.8584 27.0369 21.4615 28.8912 21.4615C29.5918 21.4615 30.2414 21.2314 30.7796 20.84V21.2737H32.6846V14.4875H30.7796ZM30.7732 17.8807C30.7732 18.845 30.0004 19.6268 29.047 19.6268C28.0937 19.6268 27.3209 18.845 27.3209 17.8807C27.3209 16.9165 28.0937 16.1349 29.047 16.1349C30.0004 16.1349 30.7732 16.9165 30.7732 17.8807ZM50.8773 14.9216V14.4875H52.7822V21.2737H50.8773V20.84C50.3391 21.2314 49.6895 21.4615 48.9888 21.4615C47.1345 21.4615 45.6314 19.8584 45.6314 17.8807C45.6314 15.9031 47.1345 14.3 48.9888 14.3C49.6895 14.3 50.3391 14.5301 50.8773 14.9216ZM49.1447 19.6268C50.0981 19.6268 50.8709 18.845 50.8709 17.8807C50.8709 16.9165 50.0981 16.1349 49.1447 16.1349C48.1913 16.1349 47.4186 16.9165 47.4186 17.8807C47.4186 18.845 48.1913 19.6268 49.1447 19.6268ZM53.6091 20.1417C53.6091 19.4375 54.1443 18.8667 54.8045 18.8667C55.4647 18.8667 56 19.4375 56 20.1417C56 20.8458 55.4647 21.4167 54.8045 21.4167C54.1443 21.4167 53.6091 20.8458 53.6091 20.1417ZM42.2463 14.305C41.4853 14.305 40.7651 14.557 40.2836 15.2522V14.4879H38.3868V21.2737H40.3069V17.7075C40.3069 16.6756 40.9557 16.1702 41.7369 16.1702C42.5742 16.1702 43.0555 16.7037 43.0555 17.6935V21.2737H44.9582V16.9582C44.9582 15.379 43.781 14.305 42.2463 14.305ZM35.6317 14.4876V15.3715C36.0135 14.8413 36.7251 14.488 37.4987 14.488V16.4627C37.4951 16.4626 37.4916 16.4624 37.4881 16.4622C37.4841 16.462 37.4802 16.4618 37.4761 16.4618C36.7223 16.4618 35.636 17.0364 35.636 18.1053V21.2737H33.6812V14.4876H35.6317Z" fill="#17120F"/>
</svg>
