<svg width="135" height="33" viewBox="0 0 135 33" fill="none" xmlns="http://www.w3.org/2000/svg">
<path fill-rule="evenodd" clip-rule="evenodd" d="M6.75638 31.8843H0V0.476929H6.75638V31.8843ZM23.6313 0.476929H17.0195C17.0195 6.25669 14.5279 11.5616 10.1838 15.0322L7.56434 17.1245L17.7141 31.8856H26.0591L16.72 18.3031C21.1469 13.6016 23.6313 7.27639 23.6313 0.476929ZM34.4091 31.8757H28.0285V0.482944H34.4091V31.8757ZM53.6946 10.1601V11.5492C51.9724 10.2962 49.8937 9.55986 47.6518 9.55986C41.7182 9.55986 36.9081 14.69 36.9081 21.0184C36.9081 27.3468 41.7182 32.4769 47.6518 32.4769C49.8937 32.4769 51.9724 31.7406 53.6946 30.4879V31.8757H59.7908V10.1601H53.6946ZM53.6744 21.0184C53.6744 24.1041 51.2012 26.6057 48.1504 26.6057C45.0999 26.6057 42.6268 24.1041 42.6268 21.0184C42.6268 17.9327 45.0999 15.4317 48.1504 15.4317C51.2012 15.4317 53.6744 17.9327 53.6744 21.0184ZM118.007 11.5492V10.1601H124.103V31.8757H118.007V30.4879C116.285 31.7406 114.206 32.4769 111.964 32.4769C106.031 32.4769 101.22 27.3468 101.22 21.0184C101.22 14.69 106.031 9.55986 111.964 9.55986C114.206 9.55986 116.285 10.2962 118.007 11.5492ZM112.463 26.6057C115.514 26.6057 117.987 24.1041 117.987 21.0184C117.987 17.9327 115.514 15.4317 112.463 15.4317C109.412 15.4317 106.939 17.9327 106.939 21.0184C106.939 24.1041 109.412 26.6057 112.463 26.6057ZM126.749 28.2536C126.749 26 128.462 24.1734 130.574 24.1734C132.687 24.1734 134.4 26 134.4 28.2536C134.4 30.5065 132.687 32.3334 130.574 32.3334C128.462 32.3334 126.749 30.5065 126.749 28.2536ZM90.388 9.57601C87.9529 9.57601 85.6483 10.3823 84.1075 12.6069V10.1614H78.0377V31.8757H84.182V20.4641C84.182 17.1618 86.2583 15.5448 88.7582 15.5448C91.4373 15.5448 92.9776 17.2518 92.9776 20.4191V31.8757H99.0664V18.0663C99.0664 13.0128 95.299 9.57601 90.388 9.57601ZM69.2213 10.1604V12.9887C70.4433 11.2922 72.7203 10.1617 75.1958 10.1617V16.4806C75.1843 16.4804 75.1731 16.4798 75.1619 16.4792L75.1619 16.4791C75.1492 16.4784 75.1365 16.4777 75.1234 16.4777C72.7114 16.4777 69.2353 18.3164 69.2353 21.737V31.8757H62.9799V10.1604H69.2213Z" fill="#17120F"/>
</svg>
