<svg width="70" height="32" viewBox="0 0 70 32" fill="none" xmlns="http://www.w3.org/2000/svg">
<rect x="0.5" y="0.5" width="69" height="31" stroke="#333333"/>
<path d="M29.2447 14.3926L26.027 17.2788H18.0577C17.3144 17.2778 16.5964 17.5481 16.0391 18.0385L20.0584 14.4323L20.1201 14.3778L25.1558 9.85622C25.9678 9.12791 27.1078 8.88686 28.1463 9.22389C29.1848 9.56091 29.9642 10.4248 30.1907 11.4901C30.4173 12.5555 30.0567 13.6604 29.2447 14.3887V14.3926Z" fill="#F15B41"/>
<ellipse cx="18.0577" cy="12.1267" rx="3.05766" ry="3.04891" fill="#F99D1D"/>
<path d="M18.0578 17.2788C17.3144 17.2778 16.5964 17.5481 16.0391 18.0385L16.0134 18.0619C14.7579 19.1878 14.6555 21.1153 15.7846 22.3671C16.9137 23.6189 18.8468 23.721 20.1022 22.5952L26.0278 17.2796L18.0578 17.2788Z" fill="#272560"/>
<path d="M26.0229 17.2812L20.0966 22.5967C19.5355 23.0999 18.8069 23.3773 18.0522 23.3751L27.1953 23.3751C28.9589 23.347 30.204 22.024 30.204 20.3266C30.204 18.6292 28.8647 17.3047 27.1953 17.2781L26.0229 17.2812Z" fill="#00B6BD"/>
<path d="M34.6364 20.8263C34.3818 20.8356 34.1356 20.7355 33.9606 20.5515C33.7893 20.3657 33.6979 20.1207 33.7061 19.8689C33.7037 19.6152 33.7668 19.3652 33.8893 19.1426C33.997 18.9437 34.1284 18.7584 34.2809 18.5908L38.064 14.3393H34.7664C34.4469 14.3393 34.2182 14.2303 34.0929 14.0139C33.9709 13.7965 33.9101 13.5505 33.9167 13.3017C33.9079 13.0619 33.9774 12.8257 34.1148 12.6284C34.2511 12.4417 34.4727 12.3357 34.7045 12.3466H40.5307C40.777 12.3353 41.0173 12.4248 41.1955 12.5941C41.3608 12.7584 41.4445 12.9919 41.4445 13.2877C41.4515 13.518 41.4032 13.7467 41.3036 13.9547C41.208 14.136 41.0881 14.3036 40.9473 14.4529L37.0076 18.8328H40.7405C40.9651 18.8273 41.1789 18.9285 41.3161 19.1053C41.4623 19.3029 41.5361 19.5444 41.5252 19.7895C41.5359 20.0448 41.4743 20.298 41.3474 20.5204C41.2198 20.7235 40.9935 20.827 40.6756 20.827L34.6364 20.8263Z" fill="#272560"/>
<path fill-rule="evenodd" clip-rule="evenodd" d="M42.8022 11.3262C43.0528 11.5581 43.3841 11.6756 43.7882 11.6756V11.678C44.1899 11.678 44.5211 11.5643 44.7741 11.33C45.027 11.0958 45.1554 10.7774 45.1554 10.3843C45.1554 9.94376 45.0074 9.61217 44.7161 9.39889C44.4491 9.19757 44.1233 9.08827 43.7882 9.08754C43.3817 9.08754 43.0489 9.2113 42.8007 9.45338C42.549 9.69619 42.4113 10.0327 42.4209 10.3812C42.4209 10.7743 42.5517 11.0942 42.8022 11.3262ZM42.5352 19.9654C42.5352 20.4091 42.7513 20.9384 43.7882 20.9384C44.1523 20.9384 44.4381 20.8706 44.6605 20.7095C44.8829 20.5484 44.9957 20.2868 44.9957 19.9311V13.3928C44.9957 13.0503 44.8806 12.7841 44.673 12.619C44.4655 12.454 44.1742 12.3707 43.8062 12.3707C43.3692 12.3707 43.045 12.4735 42.8414 12.6751C42.6378 12.8767 42.5352 13.1507 42.5352 13.4893V19.9654Z" fill="#272560"/>
<path fill-rule="evenodd" clip-rule="evenodd" d="M46.5244 22.4306C46.5244 22.8821 46.7295 23.4199 47.699 23.4199C48.1273 23.4199 48.4296 23.3444 48.6262 23.1794C48.8227 23.0144 48.9222 22.7466 48.9222 22.3839V20.2978C49.0235 20.4051 49.1365 20.5009 49.2589 20.5835C49.4848 20.7347 49.73 20.8554 49.988 20.9423C50.3472 21.0561 50.7231 21.1088 51.1 21.098C51.6627 21.1073 52.2203 20.991 52.7319 20.7579C53.2021 20.5374 53.6159 20.2141 53.9426 19.8121C54.2815 19.3855 54.5351 18.8983 54.6896 18.3768C54.8645 17.7897 54.9505 17.18 54.9449 16.5678C54.9497 15.9668 54.875 15.3677 54.7225 14.7861C54.5892 14.2713 54.358 13.7867 54.0412 13.3585C53.7373 12.9581 53.3433 12.634 52.8909 12.412C52.3965 12.1772 51.8537 12.0605 51.3059 12.0711C50.7342 12.0628 50.1723 12.2185 49.6873 12.5194C49.4877 12.6419 49.3037 12.7877 49.1391 12.9538C49.0791 13.0165 49.0229 13.0778 48.9707 13.1375C48.9707 12.7677 48.8368 12.5101 48.5792 12.3785C48.3364 12.2571 48.0679 12.1952 47.7961 12.1979C47.3591 12.1979 47.0342 12.3007 46.8313 12.5023C46.6271 12.7052 46.516 12.9828 46.5244 13.2698V22.4306ZM49.9128 14.326C50.1486 14.2017 50.4126 14.1398 50.6794 14.1462C50.9408 14.1428 51.1986 14.2063 51.4281 14.3307C51.6485 14.4541 51.8364 14.6278 51.9762 14.8374C52.1334 15.0759 52.2489 15.3391 52.3177 15.6158C52.3998 15.9377 52.4408 16.2685 52.4398 16.6005C52.4398 17.3174 52.2824 17.9238 51.9872 18.3791C51.692 18.8345 51.2667 19.0555 50.6826 19.0555C50.0984 19.0555 49.6732 18.8493 49.3599 18.4079C49.0467 17.9666 48.8901 17.3586 48.8901 16.6005C48.8875 16.2676 48.9273 15.9357 49.0083 15.6127C49.0771 15.3348 49.1951 15.0712 49.3568 14.8343C49.5007 14.625 49.6909 14.4511 49.9128 14.326Z" fill="#272560"/>
</svg>
